# xmcd
#
# Track frame offsets:
#	150
#	25062
#	46542
#	66520
#	90496
#	107994
#	125658
#	145321
#	170012
#	191780
#
# Disc length: 3008 seconds
#
# Revision: 0
# Processed by: cddbd v1.5.2PL0 Copyright (c) Steve Scherf et al.
# Submitted via: audiograbber 1.83.01
#
DISCID=8e0bbe0a
DTITLE=Various Artist - XMiX Club Classics 19
DYEAR=2013
DGENRE=Pop
TTITLE0=Billy Idol - Dancing With Myself
TTITLE1=The Proclaimers - I'm Gonna Be (500 Miles)
TTITLE2=Marvin Gaye - Got To Give It Up (Pt.1)
TTITLE3=Whitney Houston - I'm Every Woman
TTITLE4=Hall and Oates - Private Eyes
TTITLE5=Men At Work - Down Under
TTITLE6=Soul II Soul - Back To Life
TTITLE7=Lil Kim Feat. Angie Martinez, Lisa "Left Eye" Lopes, Da Brat and Missy El
TTITLE7=liot - Not Tonight (Remix)
TTITLE8=TLC - Creep
TTITLE9=*Nsync Vs. BSB - *Nsync Vs. BSB Mini-Mix
EXTD=
EXTT0=
EXTT1=
EXTT2=
EXTT3=
EXTT4=
EXTT5=
EXTT6=
EXTT7=
EXTT8=
EXTT9=
PLAYORDER=
